<?xml version="1.0" encoding="utf-8"?>
<!-- Generator: Adobe Illustrator 25.1.0, SVG Export Plug-In . SVG Version: 6.00 Build 0)  -->
<svg version="1.1" id="Layer_1" xmlns="http://www.w3.org/2000/svg" xmlns:xlink="http://www.w3.org/1999/xlink" x="0px" y="0px"
	 viewBox="0 0 244.8 237.6" style="enable-background:new 0 0 244.8 237.6;" xml:space="preserve">
<style type="text/css">
	.st0{fill:#464646;}
	.st1{fill:#FFFFFF;}
</style>
<path class="st0" d="M83,155.3c-1.9-0.1-3.4-1.8-3.4-3.7c0.1-1.9,1.7-3.4,3.7-3.4c0,0,0,0,0,0c1.9,0,3.4,1.6,3.4,3.5
	c0,0.1,0,0.1,0,0.2c-0.1,1.9-1.6,3.4-3.5,3.4H83z M90.1,151.8c-0.3-1.9,1-3.6,2.9-3.9c0,0,0.1,0,0.1,0c1.8-0.3,3.6,0.9,3.9,2.7
	c0,0.1,0,0.2,0,0.2c0.2,1.9-1.1,3.7-3,4h-0.5C91.8,154.8,90.4,153.5,90.1,151.8z M72.1,153.8c-1.9-0.4-3.1-2.2-2.7-4.1
	c0-0.1,0-0.1,0-0.2c0.4-1.9,2.3-3,4.2-2.6c1.9,0.4,3.1,2.3,2.6,4.2c0,0,0,0,0,0c-0.3,1.6-1.8,2.8-3.4,2.7L72.1,153.8L72.1,153.8z
	 M100.4,150.1c-0.6-1.9,0.5-3.8,2.3-4.4c1.8-0.6,3.8,0.3,4.4,2.1c0,0,0,0.1,0,0.1c0.6,1.8-0.3,3.8-2.1,4.4c0,0-0.1,0-0.1,0
	c-0.4,0.2-0.7,0.2-1.1,0.2C102.2,152.6,100.9,151.6,100.4,150.1z M61.5,150.3c-1.8-0.8-2.6-2.9-1.8-4.6c0.8-1.8,2.9-2.6,4.6-1.8
	c1.8,0.8,2.6,2.8,1.8,4.6c0,0,0,0,0,0c-0.5,1.3-1.8,2.2-3.2,2.2C62.5,150.7,62,150.6,61.5,150.3z M110.2,146.6
	c-0.9-1.7-0.2-3.8,1.4-4.7c1.7-0.9,3.8-0.3,4.8,1.4c0,0,0,0,0,0c0.9,1.7,0.2,3.8-1.4,4.7c-0.5,0.3-1.1,0.4-1.7,0.4
	C112,148.5,110.8,147.7,110.2,146.6z M51.9,145.1c-1.6-1-2.1-3.1-1.1-4.6c0-0.1,0.1-0.1,0.1-0.2c1.1-1.6,3.2-2.1,4.9-1c0,0,0,0,0,0
	c1.6,1.1,2,3.3,1,4.9c-0.7,1-1.8,1.6-3,1.6C53.1,145.7,52.4,145.5,51.9,145.1z M119.3,141.4c-1.2-1.5-1-3.7,0.5-5c0,0,0,0,0,0
	c1.5-1.2,3.7-0.9,4.9,0.6c0,0,0,0,0,0c1.2,1.5,1,3.6-0.5,4.8c0,0,0,0-0.1,0c-0.6,0.5-1.4,0.8-2.2,0.8
	C121,142.7,120,142.2,119.3,141.4L119.3,141.4z M43.2,138.2c-1.4-1.4-1.4-3.6-0.1-5c1.4-1.4,3.6-1.4,5-0.1c1.4,1.3,1.5,3.5,0.2,4.9
	c0,0-0.1,0.1-0.1,0.1c-0.6,0.7-1.5,1.1-2.5,1C44.8,139.1,43.9,138.8,43.2,138.2z M127.3,134.7c-1.5-1.3-1.6-3.5-0.3-5
	c1.3-1.5,3.5-1.6,5-0.3c1.5,1.3,1.6,3.5,0.3,5c-0.7,0.8-1.6,1.2-2.6,1.2C128.8,135.5,127.9,135.2,127.3,134.7z M36,129.8
	c-1.2-1.5-0.9-3.7,0.6-4.8c0,0,0.1,0,0.1-0.1c1.6-1.1,3.8-0.8,5,0.8c1.1,1.6,0.8,3.7-0.8,4.9c-0.6,0.4-1.3,0.7-2.1,0.6
	C37.7,131.3,36.6,130.8,36,129.8z M133.9,126.6c-1.7-1-2.2-3.2-1.2-4.9c1-1.6,3.1-2.1,4.8-1.2c1.7,1,2.2,3.2,1.2,4.8c0,0,0,0,0,0.1
	c-0.6,1.1-1.7,1.7-3,1.7C135.1,127.1,134.5,127,133.9,126.6z M30.3,120.4c-0.8-1.7-0.1-3.8,1.6-4.7c1.8-0.8,3.9-0.1,4.7,1.6
	c0,0,0,0,0,0c0.8,1.7,0.2,3.8-1.5,4.6c0,0,0,0-0.1,0c-0.5,0.2-1,0.4-1.5,0.4C32.2,122.4,30.9,121.6,30.3,120.4z M139.1,117.5
	c-1.8-0.7-2.7-2.7-2.1-4.5c0.7-1.8,2.7-2.8,4.5-2.1c0,0,0,0,0,0c1.8,0.7,2.8,2.7,2.1,4.5c0,0,0,0,0,0c-0.6,1.4-1.9,2.2-3.4,2.2
	C139.8,117.8,139.4,117.7,139.1,117.5z M26.4,110c-0.5-1.9,0.6-3.8,2.5-4.3c1.9-0.5,3.8,0.6,4.3,2.5c0,0,0,0,0,0
	c0.6,1.8-0.5,3.7-2.3,4.3c0,0-0.1,0-0.1,0l-1,0.2C28.2,112.6,26.8,111.5,26.4,110z M142.4,107.7c-1.9-0.4-3.1-2.2-2.8-4.1
	c0.3-1.9,2.1-3.2,4.1-2.9c0,0,0,0,0,0c1.9,0.4,3.2,2.2,2.9,4.1c-0.3,1.7-1.8,3-3.5,3L142.4,107.7L142.4,107.7z M24.5,99.2
	c-0.2-1.9,1.2-3.7,3.2-3.8c0,0,0,0,0,0c1.9-0.1,3.6,1.3,3.8,3.2c0.1,1.9-1.3,3.6-3.2,3.8H28C26.2,102.3,24.7,101,24.5,99.2z
	 M144,97.3c-1.9,0-3.5-1.6-3.5-3.5c0-1.9,1.6-3.5,3.5-3.5c1.9,0,3.5,1.6,3.5,3.5V94c0,1.9-1.6,3.5-3.5,3.5V97.3z M27.7,91.9
	c-1.9-0.2-3.3-1.8-3.2-3.8c0.2-1.9,1.9-3.4,3.8-3.2c0,0,0,0,0,0c1.9,0.2,3.3,1.8,3.2,3.8c-0.2,1.8-1.7,3.2-3.5,3.3L27.7,91.9
	L27.7,91.9z M139.6,84c-0.3-1.9,1-3.8,2.9-4.2c1.9-0.3,3.7,0.9,4.1,2.9c0,0,0,0,0,0c0.3,1.9-0.9,3.7-2.9,4.1c0,0,0,0,0,0h-0.6
	C141.5,86.8,140,85.6,139.6,84L139.6,84z M28.9,81.6c-1.9-0.5-3-2.4-2.5-4.3c0,0,0,0,0,0c0.5-1.9,2.4-3,4.3-2.5c0,0,0,0,0,0
	c1.9,0.5,2.9,2.5,2.5,4.3c-0.4,1.6-1.8,2.6-3.4,2.6L28.9,81.6z M137.1,74.5c-0.7-1.8,0.2-3.9,2-4.5c0,0,0,0,0,0
	c1.8-0.6,3.8,0.3,4.5,2.1c0.7,1.8-0.2,3.9-2,4.6c0,0,0,0,0,0c-0.4,0.1-0.8,0.2-1.3,0.2C138.9,76.8,137.6,75.9,137.1,74.5z M32,71.6
	c-1.7-0.8-2.4-2.9-1.6-4.6c0,0,0,0,0-0.1c0.8-1.7,2.8-2.5,4.6-1.7c0,0,0.1,0,0.1,0c1.7,0.9,2.5,3,1.7,4.7c-0.6,1.2-1.8,2-3.2,2
	C33,71.9,32.5,71.8,32,71.6z M132.8,65.7c-1-1.7-0.5-3.8,1.1-4.8c0,0,0,0,0.1,0c1.7-1,3.8-0.4,4.8,1.3c1,1.6,0.5,3.7-1.1,4.7
	c0,0-0.1,0-0.1,0.1c-0.5,0.3-1.1,0.5-1.8,0.5C134.6,67.4,133.5,66.8,132.8,65.7z M36.8,62.3c-1.5-1.2-1.9-3.4-0.7-5
	c1.1-1.5,3.3-1.9,4.8-0.8c0,0,0.1,0,0.1,0.1c1.6,1.1,2,3.2,0.9,4.8c0,0,0,0.1-0.1,0.1C41.1,62.5,40,63,38.9,63
	C38.1,63,37.4,62.7,36.8,62.3z M127,57.8c-1.3-1.5-1.1-3.7,0.3-5c1.5-1.3,3.7-1.1,5,0.3c1.3,1.5,1.1,3.7-0.3,5
	c-0.6,0.6-1.5,0.9-2.3,0.9C128.7,59,127.7,58.5,127,57.8z M43.2,54.1c-1.4-1.4-1.3-3.7,0.1-5c1.4-1.3,3.7-1.3,5,0.2
	c1.3,1.4,1.2,3.6-0.2,5c-0.6,0.6-1.5,1-2.4,1C44.8,55.2,43.9,54.8,43.2,54.1z M120,51c-1.5-1.1-1.8-3.3-0.7-4.8c0,0,0.1-0.1,0.1-0.1
	c1.1-1.5,3.2-1.8,4.7-0.6c0.1,0,0.1,0.1,0.2,0.1c1.5,1.1,1.8,3.2,0.7,4.7c0,0.1-0.1,0.1-0.1,0.2c-0.6,0.9-1.6,1.4-2.7,1.4
	C121.4,51.8,120.6,51.5,120,51z M51,47c-1-1.6-0.6-3.8,1-4.9c1.6-1,3.8-0.6,4.9,1c1.1,1.6,0.7,3.8-1,4.9c-0.6,0.4-1.2,0.6-1.9,0.6
	C52.7,48.7,51.6,48.1,51,47z M111.8,45.6c-1.7-0.9-2.4-3-1.5-4.8c0,0,0,0,0,0c0.9-1.7,3-2.3,4.7-1.4c1.7,0.9,2.4,3,1.5,4.8
	c0,0,0,0,0,0c-0.6,1.2-1.8,1.9-3.1,1.8C112.9,46,112.3,45.9,111.8,45.6z M59.9,41.6c-0.8-1.8,0-3.9,1.8-4.6c0,0,0,0,0,0
	c1.8-0.8,3.9,0,4.6,1.8c0,0,0,0,0,0c0.7,1.8-0.1,3.8-1.8,4.6l-1.4,0.2C61.7,43.7,60.4,42.9,59.9,41.6z M102.8,41.8
	c-1.8-0.6-2.8-2.6-2.2-4.5c0.6-1.8,2.6-2.8,4.5-2.2c1.8,0.6,2.8,2.6,2.2,4.5c-0.5,1.4-1.8,2.4-3.4,2.4L102.8,41.8z M69.5,37.8
	c-0.4-1.9,0.8-3.8,2.6-4.2c1.9-0.4,3.8,0.8,4.2,2.7c0.4,1.9-0.7,3.7-2.6,4.1c0,0-0.1,0-0.1,0H73C71.4,40.4,70,39.3,69.5,37.8z
	 M93.2,39.5c-1.9-0.2-3.3-2-3-3.9c0.3-1.9,2.1-3.3,4-3c1.9,0.3,3.3,2.1,3,4c-0.2,1.8-1.8,3.1-3.5,3L93.2,39.5L93.2,39.5z M79.8,35.8
	c-0.1-1.9,1.4-3.6,3.4-3.7c0,0,0,0,0,0c1.9-0.1,3.6,1.4,3.7,3.4c0,0,0,0,0,0c0.1,1.9-1.4,3.6-3.4,3.7c0,0,0,0,0,0h-0.2
	C81.4,39.1,79.9,37.6,79.8,35.8z"/>
<path class="st0" d="M174.4,26.7l42.7,42.8c4.2,4.1,4.3,10.9,0.2,15.1c-0.1,0.1-0.1,0.1-0.2,0.2L90.9,210.8
	c-4.1,4.2-10.8,4.3-14.9,0.2c-0.1-0.1-0.1-0.1-0.2-0.2L33,168.1c-4.2-4.2-4.2-11,0-15.2L159.2,26.7
	C163.4,22.5,170.2,22.5,174.4,26.7z M120.1,65.9l58,57.9l4.3-4.3l-57.9-58L120.1,65.9z M68.4,117.5l57.9,58l4.4-4.4l-58-57.9
	L68.4,117.5z M125.1,141.9c-2.8,2.7-2.8,7.2,0,10c2.7,2.8,7.2,2.8,10,0c2.8-2.7,2.8-7.2,0-10c0,0,0,0,0,0c-2.6-2.7-7-2.8-9.7-0.2
	C125.2,141.7,125.2,141.8,125.1,141.9z M108.9,125.6c-2.7,2.8-2.7,7.2,0,10c2.8,2.7,7.2,2.7,10,0c2.7-2.7,2.7-7.2,0-9.9
	C116.1,122.9,111.6,122.9,108.9,125.6z M92.7,109.4c-2.7,2.8-2.7,7.2,0,10s7.2,2.7,10,0c2.7-2.7,2.7-7.2,0-9.9
	C99.9,106.7,95.5,106.7,92.7,109.4z M146.3,120.6c-2.7,2.8-2.7,7.2,0,10c2.8,2.7,7.2,2.7,10,0c2.7-2.7,2.7-7.2,0-9.9
	C153.5,117.9,149,117.9,146.3,120.6z M130.1,104.5c-2.7,2.7-2.7,7.2,0,9.9c2.5,3,7,3.4,9.9,0.8s3.4-7,0.8-9.9
	c-0.3-0.3-0.5-0.6-0.8-0.8C137.3,101.7,132.8,101.7,130.1,104.5z M113.9,88.3c-2.8,2.7-2.8,7.2,0,10c2.7,2.8,7.2,2.8,10,0
	c2.8-2.7,2.8-7.2,0-10c0,0,0,0,0,0c-2.6-2.7-7-2.8-9.7-0.2C114,88.2,114,88.2,113.9,88.3z"/>
<path class="st1" d="M120.1,65.9l58,57.9l4.3-4.3l-57.9-58L120.1,65.9z M68.4,117.5l57.9,58l4.4-4.4l-58-57.9L68.4,117.5z
	 M125.1,141.9c-2.8,2.7-2.8,7.2,0,10c2.7,2.8,7.2,2.8,10,0c2.8-2.7,2.8-7.2,0-10c0,0,0,0,0,0c-2.6-2.7-7-2.8-9.7-0.2
	C125.2,141.7,125.2,141.8,125.1,141.9z M108.9,125.6c-2.7,2.8-2.7,7.2,0,10c2.8,2.7,7.2,2.7,10,0c2.7-2.7,2.7-7.2,0-9.9
	C116.1,122.9,111.6,122.9,108.9,125.6z M92.7,109.4c-2.7,2.8-2.7,7.2,0,10s7.2,2.7,10,0c2.7-2.7,2.7-7.2,0-9.9
	C99.9,106.7,95.5,106.7,92.7,109.4z M146.3,120.6c-2.7,2.8-2.7,7.2,0,10c2.8,2.7,7.2,2.7,10,0c2.7-2.7,2.7-7.2,0-9.9
	C153.5,117.9,149,117.9,146.3,120.6z M130.1,104.5c-2.7,2.7-2.7,7.2,0,9.9c2.5,3,7,3.4,9.9,0.8s3.4-7,0.8-9.9
	c-0.3-0.3-0.5-0.6-0.8-0.8C137.3,101.7,132.8,101.7,130.1,104.5z M113.9,88.3c-2.8,2.7-2.8,7.2,0,10c2.7,2.8,7.2,2.8,10,0
	c2.8-2.7,2.8-7.2,0-10c0,0,0,0,0,0c-2.6-2.7-7-2.8-9.7-0.2C114,88.2,114,88.2,113.9,88.3z"/>
</svg>
