<?xml version="1.0" encoding="utf-8"?>
<!-- Generator: Adobe Illustrator 25.1.0, SVG Export Plug-In . SVG Version: 6.00 Build 0)  -->
<svg version="1.1" id="Layer_1" xmlns="http://www.w3.org/2000/svg" xmlns:xlink="http://www.w3.org/1999/xlink" x="0px" y="0px"
	 viewBox="0 0 266.4 165.6" style="enable-background:new 0 0 266.4 165.6;" xml:space="preserve">
<style type="text/css">
	.st0{fill:#B2B2B2;}
	.st1{fill:#464646;}
</style>
<path class="st0" d="M241,96.9c-79.1,71.7-130.8,69.4-197.8,0C110.2,27.6,161.9,25.2,241,96.9"/>
<path class="st1" d="M142.1,51.7c-25,0-45.2,20.2-45.2,45.2s20.2,45.2,45.2,45.2s45.2-20.2,45.2-45.2S167.1,51.7,142.1,51.7z
	 M156.1,88.4c-6.6,0-12-5.5-12-12.1c0-6.6,5.5-12,12.1-12c6.6,0,12,5.4,12,12C168.2,83,162.9,88.4,156.1,88.4
	C156.2,88.4,156.2,88.4,156.1,88.4z M76.3,39.6H55.7V19c0-1.8-1.4-3.2-3.2-3.2s-3.2,1.4-3.2,3.2v20.6H28.6c-1.8,0-3.2,1.4-3.2,3.2
	c0,1.8,1.4,3.2,3.2,3.2h20.6v20.6c0,1.8,1.4,3.2,3.2,3.2s3.2-1.4,3.2-3.2V46.1h20.6c1.8,0,3.2-1.4,3.2-3.2
	C79.5,41,78.1,39.6,76.3,39.6z"/>
</svg>
