<svg xmlns="http://www.w3.org/2000/svg" width="22in" height="4in" viewBox="0 0 1586.7 288"><path fill="#464646" d="M435.8 188.1a4.4 4.4 0 0 1-4.2-4.6 4.4 4.4 0 0 1 4.6-4.2 4.4 4.4 0 0 1 4.2 4.6 4.5 4.5 0 0 1-4.4 4.2h-.2zm8.8-4.4a4.4 4.4 0 0 1 3.8-4.9 4.2 4.2 0 0 1 4.9 3.7 4.3 4.3 0 0 1-3.7 5h-.6a4.4 4.4 0 0 1-4.4-3.8zm-22.5 2.5a4.5 4.5 0 0 1-3.3-5.3 4.5 4.5 0 0 1 5.3-3.3 4.5 4.5 0 0 1 3.3 5.3 4.5 4.5 0 0 1-4.3 3.4h-1zm35.4-4.6a4.4 4.4 0 0 1 2.8-5.5 4.4 4.4 0 0 1 5.6 2.8 4.4 4.4 0 0 1-2.9 5.5 3.1 3.1 0 0 1-1.3.3 4.4 4.4 0 0 1-4.2-3.1zm-48.5.3a4.4 4.4 0 0 1-2.3-5.8 4.5 4.5 0 0 1 5.8-2.3 4.5 4.5 0 0 1 2.3 5.8 4.6 4.6 0 0 1-4.1 2.7 3.5 3.5 0 0 1-1.7-.4zm60.8-4.7a4.2 4.2 0 0 1 1.8-5.9 4.2 4.2 0 0 1 5.9 1.8 4.2 4.2 0 0 1-1.8 5.9 3.6 3.6 0 0 1-2 .6 4.4 4.4 0 0 1-3.9-2.4zm-73-1.8a4.5 4.5 0 0 1-1.2-6.1 4.4 4.4 0 0 1 6.1-1.3 4.4 4.4 0 0 1 1.2 6.1 4.2 4.2 0 0 1-3.6 2 5.5 5.5 0 0 1-2.5-.7zm84.3-4.7a4.3 4.3 0 0 1 .7-6.1 4.3 4.3 0 0 1 6.2.7 4.3 4.3 0 0 1-.7 6.1 4.2 4.2 0 0 1-2.8 1 4.2 4.2 0 0 1-3.4-1.7zm-95-4a4.4 4.4 0 0 1-.2-6.2 4.5 4.5 0 0 1 6.3-.1 4.4 4.4 0 0 1 .1 6.2 4.5 4.5 0 0 1-3.2 1.4 4.3 4.3 0 0 1-3-1.3zm104.9-4.4a4.4 4.4 0 0 1-.4-6.2 4.4 4.4 0 0 1 6.2-.4 4.3 4.3 0 0 1 .5 6.2 4.5 4.5 0 0 1-3.4 1.5 4.2 4.2 0 0 1-2.9-1.1zm-114-6a4.4 4.4 0 0 1 1-6.1 4.3 4.3 0 0 1 6.1 1 4.3 4.3 0 0 1-.9 6.1 4.2 4.2 0 0 1-2.6.8 4.4 4.4 0 0 1-3.6-1.8zm122.4-4a4.4 4.4 0 0 1-1.5-6.1 4.3 4.3 0 0 1 6-1.4 4.4 4.4 0 0 1 1.5 6 4.3 4.3 0 0 1-3.8 2.1 4.3 4.3 0 0 1-2.2-.6zm-129.5-7.8a4.5 4.5 0 0 1 2.1-5.9 4.4 4.4 0 0 1 5.9 2.1 4.4 4.4 0 0 1-2.1 5.8 4.5 4.5 0 0 1-1.9.5 4.7 4.7 0 0 1-4-2.5zm135.9-3.6a4.3 4.3 0 0 1-2.6-5.6 4.4 4.4 0 0 1 5.7-2.6 4.4 4.4 0 0 1 2.5 5.7 4.3 4.3 0 0 1-4.1 2.8zm-140.7-9.4a4.4 4.4 0 0 1 3.1-5.4 4.5 4.5 0 0 1 5.4 3.1 4.4 4.4 0 0 1-3.1 5.4l-1.2.2a4.4 4.4 0 0 1-4.2-3.3zm144.9-2.9a4.3 4.3 0 0 1-3.5-5.1 4.3 4.3 0 0 1 5.1-3.5 4.4 4.4 0 0 1 3.5 5.1 4.4 4.4 0 0 1-4.3 3.6h-.8zM362.7 118a4.3 4.3 0 0 1 4-4.8 4.4 4.4 0 0 1 4.7 4 4.4 4.4 0 0 1-4 4.8h-.4a4.4 4.4 0 0 1-4.3-4zm149.3-2.3a4.4 4.4 0 0 1-4.4-4.4 4.3 4.3 0 0 1 4.4-4.3 4.4 4.4 0 0 1 4.4 4.3v.2a4.4 4.4 0 0 1-4.4 4.4zm-145.3-6.8a4.3 4.3 0 0 1-4-4.7 4.3 4.3 0 0 1 4.8-4 4.3 4.3 0 0 1 3.9 4.8 4.4 4.4 0 0 1-4.3 4h-.4zM506.5 99a4.4 4.4 0 0 1 3.5-5.1 4.3 4.3 0 0 1 5.1 3.5 4.3 4.3 0 0 1-3.5 5.1h-.8a4.4 4.4 0 0 1-4.3-3.5zm-138.3-3a4.5 4.5 0 0 1-3.1-5.4 4.5 4.5 0 0 1 5.5-3.1 4.4 4.4 0 0 1 3 5.4 4.4 4.4 0 0 1-4.2 3.3zm135-8.8a4.5 4.5 0 0 1 2.6-5.7 4.5 4.5 0 0 1 5.7 2.6 4.5 4.5 0 0 1-2.6 5.7 3.9 3.9 0 0 1-1.5.2 4.4 4.4 0 0 1-4.2-2.8zm-131.1-3.7a4.4 4.4 0 0 1-2.1-5.8 4.5 4.5 0 0 1 5.9-2.1 4.4 4.4 0 0 1 2 5.9A4.2 4.2 0 0 1 374 84a4.1 4.1 0 0 1-1.9-.5zm125.8-7.3a4.6 4.6 0 0 1 1.5-6.1 4.5 4.5 0 0 1 6.1 1.6 4.4 4.4 0 0 1-1.5 6 4.6 4.6 0 0 1-2.3.6 4.4 4.4 0 0 1-3.8-2.1zM378.1 72a4.5 4.5 0 0 1-1-6.2 4.4 4.4 0 0 1 6.2-.9 4.3 4.3 0 0 1 .9 6.1 4.2 4.2 0 0 1-3.5 1.8 5 5 0 0 1-2.6-.8zm112.6-5.7a4.3 4.3 0 0 1 .5-6.2 4.4 4.4 0 0 1 6.2.4 4.3 4.3 0 0 1-.5 6.2 4.3 4.3 0 0 1-2.8 1.1 4.5 4.5 0 0 1-3.4-1.5zm-104.6-4.6a4.3 4.3 0 0 1 .1-6.2 4.3 4.3 0 0 1 6.2.1 4.4 4.4 0 0 1-.1 6.2 4.7 4.7 0 0 1-3.1 1.2 4.2 4.2 0 0 1-3.1-1.3zm95.8-3.9a4.4 4.4 0 0 1-.7-6.2 4.4 4.4 0 0 1 6.2-.6 4.3 4.3 0 0 1 .7 6.1 4.6 4.6 0 0 1-3.5 1.7 4.1 4.1 0 0 1-2.7-1zm-86.1-4.9a4.4 4.4 0 0 1 1.2-6.1 4.5 4.5 0 0 1 6.1 1.3 4.4 4.4 0 0 1-1.3 6.1 4 4 0 0 1-2.4.7 4.2 4.2 0 0 1-3.6-2zm75.9-1.8a4.5 4.5 0 0 1-1.8-6 4.6 4.6 0 0 1 6-1.8 4.6 4.6 0 0 1 1.8 6 4.3 4.3 0 0 1-3.9 2.3 4.1 4.1 0 0 1-2.1-.5zm-64.9-5a4.5 4.5 0 0 1 2.3-5.8 4.4 4.4 0 0 1 5.8 2.3 4.4 4.4 0 0 1-2.3 5.8 5.3 5.3 0 0 1-1.7.4 4.4 4.4 0 0 1-4.1-2.7zm53.7.2a4.4 4.4 0 0 1-2.8-5.6 4.4 4.4 0 0 1 5.5-2.8 4.4 4.4 0 0 1 2.8 5.6 4.4 4.4 0 0 1-4.2 3zm-41.5-5a4.4 4.4 0 0 1 3.3-5.3 4.5 4.5 0 0 1 5.3 3.4 4.4 4.4 0 0 1-3.4 5.2h-.9a4.2 4.2 0 0 1-4.3-3.3zm29.6 2.3a4.5 4.5 0 0 1-3.8-5 4.4 4.4 0 0 1 5-3.8 4.5 4.5 0 0 1 3.7 5 4.4 4.4 0 0 1-4.3 3.8h-.6zm-16.8-4.8a4.4 4.4 0 0 1 4.2-4.6 4.5 4.5 0 0 1 4.6 4.2 4.4 4.4 0 0 1-4.3 4.6h-.1a4.3 4.3 0 0 1-4.4-4.2z"/><path fill="#464646" d="M549.9 27.5l53.4 53.4a13.5 13.5 0 0 1 0 19L445.7 257.5a13.5 13.5 0 0 1-19 0l-53.3-53.4a13.3 13.3 0 0 1 0-19L530.9 27.5a13.5 13.5 0 0 1 19 0zm-67.8 48.9l72.3 72.3 5.5-5.4-72.4-72.4zm-64.6 64.5l72.4 72.4 5.4-5.5-72.3-72.3zm70.8 30.4a8.8 8.8 0 1 0 12.5 0 8.8 8.8 0 0 0-12.5 0zm-20.2-20.2a8.8 8.8 0 1 0 12.4 12.4 8.8 8.8 0 0 0-12.4-12.4zm-20.2-20.3a8.8 8.8 0 1 0 12.4 0 8.8 8.8 0 0 0-12.4 0zm66.9 14a8.8 8.8 0 0 0 12.4 12.5 8.9 8.9 0 0 0 0-12.5 8.8 8.8 0 0 0-12.4 0zm-20.3-20.2a8.8 8.8 0 1 0 12.5 0 8.9 8.9 0 0 0-12.5 0zm-20.2-20.2a8.8 8.8 0 1 0 12.5 0 8.9 8.9 0 0 0-12.5 0z"/><path fill="#fff" d="M482.1 76.4l72.3 72.3 5.5-5.4-72.4-72.4zm-64.6 64.5l72.4 72.4 5.4-5.5-72.3-72.3zm70.8 30.4a8.8 8.8 0 1 0 12.5 0 8.8 8.8 0 0 0-12.5 0zm-20.2-20.2a8.8 8.8 0 1 0 12.4 12.4 8.8 8.8 0 0 0-12.4-12.4zm-20.2-20.3a8.8 8.8 0 1 0 12.4 0 8.8 8.8 0 0 0-12.4 0zm66.9 14a8.8 8.8 0 0 0 12.4 12.5 8.9 8.9 0 0 0 0-12.5 8.8 8.8 0 0 0-12.4 0zm-20.3-20.2a8.8 8.8 0 1 0 12.5 0 8.9 8.9 0 0 0-12.5 0zm-20.2-20.2a8.8 8.8 0 1 0 12.5 0 8.9 8.9 0 0 0-12.5 0z"/><path fill="#464646" d="M844.5 27.5l53.4 53.4a13.5 13.5 0 0 1 0 19L740.3 257.5a13.5 13.5 0 0 1-19 0L668 204.1a13.3 13.3 0 0 1 0-19L825.5 27.5a13.5 13.5 0 0 1 19 0zm-67.8 48.9l72.3 72.3 5.5-5.4-72.4-72.4zm-64.6 64.5l72.4 72.4 5.4-5.5-72.3-72.3zm70.8 30.4a8.8 8.8 0 1 0 12.5 0 8.8 8.8 0 0 0-12.5 0zm-20.2-20.2a8.8 8.8 0 0 0 12.4 12.4 8.8 8.8 0 1 0-12.4-12.4zm-20.2-20.3a8.8 8.8 0 1 0 12.4 0 8.8 8.8 0 0 0-12.4 0zm66.9 14a8.8 8.8 0 1 0 12.4 12.5 8.9 8.9 0 0 0 0-12.5 8.8 8.8 0 0 0-12.4 0zm-20.3-20.2a8.8 8.8 0 1 0 12.5 0 8.9 8.9 0 0 0-12.5 0zm-20.2-20.2a8.8 8.8 0 1 0 12.5 0 8.9 8.9 0 0 0-12.5 0z"/><path fill="#fff" d="M776.7 76.4l72.3 72.3 5.5-5.4-72.4-72.4zm-64.6 64.5l72.4 72.4 5.4-5.5-72.3-72.3zm70.8 30.4a8.8 8.8 0 1 0 12.5 0 8.8 8.8 0 0 0-12.5 0zm-20.2-20.2a8.8 8.8 0 0 0 12.4 12.4 8.8 8.8 0 1 0-12.4-12.4zm-20.2-20.3a8.8 8.8 0 1 0 12.4 0 8.8 8.8 0 0 0-12.4 0zm66.9 14a8.8 8.8 0 1 0 12.4 12.5 8.9 8.9 0 0 0 0-12.5 8.8 8.8 0 0 0-12.4 0zm-20.3-20.2a8.8 8.8 0 1 0 12.5 0 8.9 8.9 0 0 0-12.5 0zm-20.2-20.2a8.8 8.8 0 1 0 12.5 0 8.9 8.9 0 0 0-12.5 0z"/><path fill="#464646" d="M171 157.8l-2.2-25.9a47 47 0 1 0-33.6 0l-2.2 25.7c-24.9 1.4-50.7 5.8-81 13.4v64h200v-64c-30.3-7.2-56.1-11.6-81-13.2zM59 239h186v8H59z"/><rect width="190.8" height="190.8" x="1019.5" y="53.6" fill="#464646" rx="27.6" ry="27.6"/><path fill="#b2b2b2" d="M1182.7 248.4h-135.5a31.7 31.7 0 0 1-31.7-31.6V81.2a31.7 31.7 0 0 1 31.7-31.6h135.5a31.6 31.6 0 0 1 31.6 31.6v135.6a31.6 31.6 0 0 1-31.6 31.6zM1047.2 57.6a23.7 23.7 0 0 0-23.7 23.6v135.6a23.7 23.7 0 0 0 23.7 23.6h135.5a23.6 23.6 0 0 0 23.6-23.6V81.2a23.6 23.6 0 0 0-23.6-23.6z"/><path fill="#b2b2b2" d="M1115 83.7a3.9 3.9 0 0 1-4-4V27.5a3.9 3.9 0 0 1 4-4 4 4 0 0 1 4 4v52.2a4 4 0 0 1-4 4zm-42.3 0a3.9 3.9 0 0 1-4-4V27.5a3.9 3.9 0 0 1 4-4 4 4 0 0 1 4 4v52.2a4 4 0 0 1-4 4zm83.6 0a4 4 0 0 1-4-4V27.5a4 4 0 0 1 4-4 3.9 3.9 0 0 1 4 4v52.2a3.9 3.9 0 0 1-4 4zM1115 274.5a3.9 3.9 0 0 1-4-4v-52.2a3.9 3.9 0 0 1 4-4 4 4 0 0 1 4 4v52.2a4 4 0 0 1-4 4zm-42.3 0a3.9 3.9 0 0 1-4-4v-52.2a3.9 3.9 0 0 1 4-4 4 4 0 0 1 4 4v52.2a4 4 0 0 1-4 4zm83.6 0a4 4 0 0 1-4-4v-52.2a4 4 0 0 1 4-4 3.9 3.9 0 0 1 4 4v52.2a3.9 3.9 0 0 1-4 4zm-111.1-122H993a3.9 3.9 0 0 1-4-4 4 4 0 0 1 4-4h52.2a4 4 0 0 1 4 4 3.9 3.9 0 0 1-4 4zm0 42.3H993a3.9 3.9 0 0 1-4-4 4 4 0 0 1 4-4h52.2a4 4 0 0 1 4 4 3.9 3.9 0 0 1-4 4zm0-83.6H993a4 4 0 0 1-4-4 3.9 3.9 0 0 1 4-4h52.2a3.9 3.9 0 0 1 4 4 4 4 0 0 1-4 4zm190.8 41.3h-52.2a3.9 3.9 0 0 1-4-4 4 4 0 0 1 4-4h52.2a4 4 0 0 1 4 4 3.9 3.9 0 0 1-4 4zm0 42.3h-52.2a3.9 3.9 0 0 1-4-4 4 4 0 0 1 4-4h52.2a4 4 0 0 1 4 4 3.9 3.9 0 0 1-4 4zm0-83.6h-52.2a4 4 0 0 1-4-4 3.9 3.9 0 0 1 4-4h52.2a3.9 3.9 0 0 1 4 4 4 4 0 0 1-4 4zm323.5 50.3c-98 88.8-162 85.9-245 0 83-85.9 147-88.8 245 0"/><path fill="#464646" d="M1437 105.5a56 56 0 1 0 56 56 56 56 0 0 0-56-56zm17.4 45.4a14.9 14.9 0 1 1 15-14.9 14.9 14.9 0 0 1-15 14.9zm-98.9-60.4H1330V65a4 4 0 0 0-8 0v25.5h-25.5a4 4 0 0 0 0 8h25.5V124a4 4 0 0 0 8 0V98.5h25.5a4 4 0 0 0 0-8z"/></svg>