<?xml version="1.0" encoding="utf-8"?>
<!-- Generator: Adobe Illustrator 25.1.0, SVG Export Plug-In . SVG Version: 6.00 Build 0)  -->
<svg version="1.1" id="Layer_1" xmlns="http://www.w3.org/2000/svg" xmlns:xlink="http://www.w3.org/1999/xlink" x="0px" y="0px"
	 viewBox="0 0 237.6 237.6" style="enable-background:new 0 0 237.6 237.6;" xml:space="preserve">
<style type="text/css">
	.st0{fill:#464646;}
	.st1{fill:#FFFFFF;}
</style>
<path class="st0" d="M171,21.3l45.2,45.3c4.4,4.4,4.5,11.5,0.2,15.9c-0.1,0.1-0.1,0.1-0.2,0.2L82.7,216.2
	c-4.4,4.4-11.5,4.5-15.9,0.2c-0.1-0.1-0.1-0.1-0.2-0.2L21.3,171c-4.4-4.5-4.4-11.6,0-16.1L154.9,21.3
	C159.4,16.9,166.6,16.9,171,21.3z M113.5,62.8l61.3,61.3l4.6-4.6l-61.3-61.4L113.5,62.8z M58.8,117.4l61.3,61.4l4.7-4.7l-61.3-61.3
	L58.8,117.4z M118.8,143.2c-2.9,2.9-2.9,7.6,0,10.5c2.9,2.9,7.6,2.9,10.5,0c2.9-2.9,2.9-7.6,0-10.5
	C126.5,140.3,121.8,140.3,118.8,143.2C118.8,143.2,118.8,143.2,118.8,143.2z M101.7,126c-2.9,2.9-2.9,7.6,0,10.6
	c2.9,2.9,7.6,2.9,10.6,0c2.9-2.9,2.9-7.7,0-10.6C109.3,123.1,104.6,123.1,101.7,126z M84.5,108.9c-2.9,2.9-2.9,7.6,0,10.5
	c2.9,2.9,7.6,2.9,10.5,0c2.9-2.9,2.9-7.6,0-10.5C92.1,106,87.4,106,84.5,108.9z M141.2,120.7c-2.9,2.9-2.9,7.6,0,10.5
	c2.9,2.9,7.6,2.9,10.5,0c2.9-2.9,2.9-7.6,0-10.5C148.8,117.9,144.1,117.9,141.2,120.7z M124.1,103.6c-2.9,2.9-2.9,7.6,0,10.5
	c2.9,2.9,7.6,2.9,10.5,0c2.9-2.9,2.9-7.6,0-10.5C131.7,100.7,127,100.7,124.1,103.6z M106.9,86.5c-2.9,2.9-2.9,7.6,0,10.5
	c2.9,2.9,7.6,2.9,10.5,0c2.9-2.9,2.9-7.6,0-10.5C114.6,83.6,109.9,83.6,106.9,86.5C107,86.5,106.9,86.5,106.9,86.5z"/>
<path class="st1" d="M113.5,62.8l61.3,61.3l4.6-4.6l-61.3-61.4L113.5,62.8z M58.8,117.4l61.3,61.4l4.7-4.7l-61.3-61.3L58.8,117.4z
	 M118.8,143.2c-2.9,2.9-2.9,7.6,0,10.5c2.9,2.9,7.6,2.9,10.5,0c2.9-2.9,2.9-7.6,0-10.5C126.5,140.3,121.8,140.3,118.8,143.2
	C118.8,143.2,118.8,143.2,118.8,143.2z M101.7,126c-2.9,2.9-2.9,7.6,0,10.6c2.9,2.9,7.6,2.9,10.6,0c2.9-2.9,2.9-7.7,0-10.6
	C109.3,123.1,104.6,123.1,101.7,126z M84.5,108.9c-2.9,2.9-2.9,7.6,0,10.5c2.9,2.9,7.6,2.9,10.5,0c2.9-2.9,2.9-7.6,0-10.5
	C92.1,106,87.4,106,84.5,108.9z M141.2,120.7c-2.9,2.9-2.9,7.6,0,10.5c2.9,2.9,7.6,2.9,10.5,0c2.9-2.9,2.9-7.6,0-10.5
	C148.8,117.9,144.1,117.9,141.2,120.7z M124.1,103.6c-2.9,2.9-2.9,7.6,0,10.5c2.9,2.9,7.6,2.9,10.5,0c2.9-2.9,2.9-7.6,0-10.5
	C131.7,100.7,127,100.7,124.1,103.6z M106.9,86.5c-2.9,2.9-2.9,7.6,0,10.5c2.9,2.9,7.6,2.9,10.5,0c2.9-2.9,2.9-7.6,0-10.5
	C114.6,83.6,109.9,83.6,106.9,86.5C107,86.5,106.9,86.5,106.9,86.5z"/>
</svg>
