<?xml version="1.0" encoding="utf-8"?>
<!-- Generator: Adobe Illustrator 25.1.0, SVG Export Plug-In . SVG Version: 6.00 Build 0)  -->
<svg version="1.1" id="Layer_1" xmlns="http://www.w3.org/2000/svg" xmlns:xlink="http://www.w3.org/1999/xlink" x="0px" y="0px"
	 viewBox="0 0 336 336" style="enable-background:new 0 0 336 336;" xml:space="preserve">
<style type="text/css">
	.st0{fill:#464646;}
	.st1{fill:#B2B2B2;}
</style>
<path class="st0" d="M92.8,61.6h151.3c17,0,30.8,13.8,30.8,30.8v151.3c0,17-13.8,30.8-30.8,30.8H92.8c-17,0-30.8-13.8-30.8-30.8
	V92.4C62,75.4,75.8,61.6,92.8,61.6z"/>
<path class="st1" d="M244.1,278.9H92.9c-19.5,0-35.3-15.8-35.4-35.3V92.4c0.1-19.5,15.9-35.3,35.4-35.3h151.2
	c19.5,0,35.3,15.8,35.3,35.3c0,0,0,0,0,0v151.3C279.3,263.1,263.5,278.9,244.1,278.9L244.1,278.9L244.1,278.9z M92.9,66
	c-14.6,0-26.4,11.8-26.4,26.3v151.3c0.1,14.6,11.9,26.3,26.4,26.3h151.2c14.5,0,26.3-11.8,26.3-26.3c0,0,0,0,0,0V92.4
	c0-14.5-11.8-26.3-26.3-26.3l0,0H92.9z"/>
<path class="st1" d="M168.6,95.2c-2.4,0.1-4.4-1.8-4.5-4.2c0-0.1,0-0.2,0-0.2V32.5c-0.1-2.4,1.8-4.4,4.2-4.5c0.1,0,0.2,0,0.2,0
	c2.5,0,4.5,2,4.5,4.5v58.2C173,93.2,171,95.2,168.6,95.2z M121.4,95.2c-2.4,0.1-4.4-1.8-4.5-4.2c0-0.1,0-0.2,0-0.2V32.5
	c-0.1-2.4,1.8-4.4,4.2-4.5c0.1,0,0.2,0,0.2,0c2.5,0,4.5,2,4.5,4.5v58.2C125.8,93.2,123.8,95.2,121.4,95.2z M214.6,95.2
	c-2.5,0-4.5-2-4.5-4.5V32.5c0-2.5,2-4.5,4.5-4.5c2.4-0.1,4.4,1.8,4.5,4.2c0,0.1,0,0.2,0,0.2v58.2c0.1,2.4-1.8,4.4-4.2,4.5
	C214.8,95.2,214.7,95.2,214.6,95.2z M168.6,308c-2.4,0.1-4.4-1.8-4.5-4.2c0-0.1,0-0.2,0-0.2v-58.2c-0.1-2.4,1.8-4.4,4.2-4.5
	c0.1,0,0.2,0,0.2,0c2.5,0,4.5,2,4.5,4.5v58.2C173,306,171,308,168.6,308z M121.4,308c-2.4,0.1-4.4-1.8-4.5-4.2c0-0.1,0-0.2,0-0.2
	v-58.2c-0.1-2.4,1.8-4.4,4.2-4.5c0.1,0,0.2,0,0.2,0c2.5,0,4.5,2,4.5,4.5v58.2C125.8,306,123.8,308,121.4,308z M214.6,308
	c-2.5,0-4.5-2-4.5-4.5v-58.2c0-2.5,2-4.5,4.5-4.5c2.4-0.1,4.4,1.8,4.5,4.2c0,0.1,0,0.2,0,0.2v58.2c0.1,2.4-1.8,4.4-4.2,4.5
	C214.8,308,214.7,308,214.6,308z M90.7,171.9H32.5c-2.4,0.1-4.4-1.8-4.5-4.2c0-0.1,0-0.2,0-0.2c0-2.5,2-4.5,4.5-4.5h58.2
	c2.5,0,4.5,2,4.5,4.5c0.1,2.4-1.8,4.4-4.2,4.5C90.8,171.9,90.8,171.9,90.7,171.9z M90.7,219.1H32.5c-2.4,0.1-4.4-1.8-4.5-4.2
	c0-0.1,0-0.2,0-0.2c0-2.5,2-4.5,4.5-4.5h58.2c2.5,0,4.5,2,4.5,4.5c0.1,2.4-1.8,4.4-4.2,4.5C90.8,219.1,90.8,219.1,90.7,219.1z
	 M90.7,125.8H32.5c-2.5,0-4.5-2-4.5-4.5c-0.1-2.4,1.8-4.4,4.2-4.5c0.1,0,0.2,0,0.2,0h58.2c2.4-0.1,4.4,1.8,4.5,4.2
	c0,0.1,0,0.2,0,0.2C95.2,123.8,93.2,125.8,90.7,125.8z M303.5,171.9h-58.2c-2.4,0.1-4.4-1.8-4.5-4.2c0-0.1,0-0.2,0-0.2
	c0-2.5,2-4.5,4.5-4.5h58.2c2.5,0,4.5,2,4.5,4.5c0.1,2.4-1.8,4.4-4.2,4.5C303.7,171.9,303.6,171.9,303.5,171.9z M303.5,219.1h-58.2
	c-2.4,0.1-4.4-1.8-4.5-4.2c0-0.1,0-0.2,0-0.2c0-2.5,2-4.5,4.5-4.5h58.2c2.5,0,4.5,2,4.5,4.5c0.1,2.4-1.8,4.4-4.2,4.5
	C303.7,219.1,303.6,219.1,303.5,219.1z M303.5,125.8h-58.2c-2.5,0-4.5-2-4.5-4.5c-0.1-2.4,1.8-4.4,4.2-4.5c0.1,0,0.2,0,0.2,0h58.2
	c2.4-0.1,4.4,1.8,4.5,4.2c0,0.1,0,0.2,0,0.2C308,123.8,306,125.8,303.5,125.8z"/>
</svg>
