<svg xmlns="http://www.w3.org/2000/svg" xmlns:xlink="http://www.w3.org/1999/xlink" viewBox="0 0 1242 2208">
    <style>
        .st0 {
            opacity: 0.45;
            fill: #CCCCCC;
            stroke: #CCCCCC;
            stroke-width: 23.4535;
            stroke-miterlimit: 10;
        }

        .st1 {
            fill: #99D4FF;
            stroke: #5589BF;
            stroke-width: 17.5902;
            stroke-miterlimit: 10;
        }

        .st2 {
            fill: #666666;
            stroke: #FFFFFF;
            stroke-width: 29.3169;
            stroke-miterlimit: 10;
        }

        .st3 {
            fill: none;
            stroke: #666666;
            stroke-width: 4.8017;
            stroke-miterlimit: 10;
            transform: translateX(-100px);
            transform: translateY(-1600px);
        }

    </style>

    <!-- BUBBLE -->
    <circle class="st3" cx="240" cy="515" r="50">
        <animateMotion path="M698.5,2153.5c0,0,179-221,18-395c-70.3-76-68.9-223.8-37.8-373.1" dur="1.5s" begin="0s" repeatCount="indefinite" />
    </circle>

    <!-- FISH AND SHADOW -->
    <ellipse class="st0" cx="625" cy="1428.2" rx="258" ry="23.5" />
    <path id="top_fin" class="st1" d="M784,889c0,0-41.7-105.8-88.6-129.2c-45.3-22.7-200.3,86.1-231.7,114.6c-1.7,1.5-1.9,4.1-0.6,6
	l52.5,78.2" />
    <path id="bottom_fin" class="st1" d="M704.6,1259.1c0,0-32.4,39.7-125.1,63.2c-0.9,0.2-1.9,0.2-2.8-0.1l-61.5-20.5
	c-3.4-1.1-4.3-5.4-1.7-7.9l73.1-68.2" />
    <path id="back_fin" class="st1" d="M394.9,1029.9L237.6,931c-3.8-2.4-8.4,1.3-7,5.5l87.2,261.5c1.1,3.3,5.4,4.3,7.8,1.8l72.7-75.6" />
    <path id="bod" class="st1" d="M1012,1075.9c-11.1,23.5-22.8,46.2-37.9,67.4c-25.2,35.4-57.4,65.7-94.7,87.9
	c-49.1,29.3-100,37.4-156.5,30.4c-95.5-11.8-186.3-53.5-268.3-102.1c-36.8-21.8-72.8-45.3-106.7-71.4c-5.4-4.1-10.6-8.4-15.3-12.3
	c33-26.8,68.2-50.7,104.9-73.2c5.7-3.5,11.4-6.9,17.2-10.3c82-48.6,172.8-90.3,268.3-102.1c56.5-7,107.4,1.2,156.5,30.4
	c37.3,22.3,69.5,52.6,94.7,87.9C989.2,1029.6,1000.8,1052.2,1012,1075.9z" />
    <circle id="eye" class="st2" cx="847.9" cy="1076.4" r="46.9" />

</svg>
