<?xml version="1.0" encoding="utf-8"?>
<!-- Generator: Adobe Illustrator 23.0.0, SVG Export Plug-In . SVG Version: 6.00 Build 0)  -->
<svg version="1.1" id="Layer_1" xmlns="http://www.w3.org/2000/svg" xmlns:xlink="http://www.w3.org/1999/xlink" x="0px" y="0px"
	 viewBox="0 0 750 1334" style="enable-background:new 0 0 750 1334;" xml:space="preserve">
<style type="text/css">
	
    @keyframes fade {
  0%, 10%  {opacity: 0}
  25%, 85% {opacity: 1}
  100%     {opacity: 0}
}
    .st0{
    fill:none;
    stroke-dasharray:200;
    stroke:#FFBC00;
    stroke-width:4;
    stroke-miterlimit:10;
    animation:dash 4s linear infinite;
    }
	.st1{fill:url(#SVGID_1_);stroke:#FF0000;stroke-width:4;stroke-miterlimit:10;}
	.st2{fill:url(#SVGID_2_);stroke:#FFFFFF;stroke-width:3.1406;stroke-miterlimit:10;}
	.st3{
    fill:none;
    stroke-dasharray:10;
    stroke:#FFFF00;
    stroke-width:9;
    stroke-miterlimit:10;
    animation:dash 7s linear infinite;}
    
	.st4{fill:#FBB03B;
    animation: fade 1.5s ease infinite;
    }
    
    @keyframes dash {
    to{
    stroke-dashoffset: 1000;
    }
    }
    
    
    
</style>
    <div>
<polyline class="st0" points="180.5,551.6 158,556 199,747 383,747 383,766 352,766 401,812 444,770 419,770 418.5,709 "
          />

 
        
        </div>
    
<polyline class="st0" points="182,560 167.5,562.5 204.5,738.5 392.5,738.5 392.5,775.5 374.5,775.5 399.5,799.5 420.5,779.5 
	408.5,779.5 408.5,717.5 225.5,717.5 224.5,708.5 "/>
<polyline class="st0" points="400.5,776.5 400.5,729.5 215.5,729.5 207.4,689.3 "/>
<linearGradient id="SVGID_1_" gradientUnits="userSpaceOnUse" x1="176" y1="599" x2="610" y2="599">
	<stop  offset="0" style="stop-color:#600000"/>
	<stop  offset="0.4756" style="stop-color:#D40000"/>
	<stop  offset="1" style="stop-color:#600000"/>
</linearGradient>
<path class="st1" d="M546.4,706.5L238.8,709c-16.6,0.1-30.9-11.4-33.9-27.4l-28.3-150.7c-3.8-20.5,12.1-39.3,33.4-39.5l365.6-2.4
	c21.6-0.1,37.9,19.1,33.8,39.8l-29.7,150.7C576.6,695.1,562.6,706.4,546.4,706.5z"/>
<linearGradient id="SVGID_2_" gradientUnits="userSpaceOnUse" x1="393" y1="674" x2="393" y2="523.9786">
	<stop  offset="0" style="stop-color:#FFFFFF"/>
	<stop  offset="0.5823" style="stop-color:#FFFFFF"/>
	<stop  offset="0.9768" style="stop-color:#666666"/>
	<stop  offset="1" style="stop-color:#000000"/>
</linearGradient>
<path class="st2" d="M523.6,672.1L261.1,674c-2.7,0-5-1.7-5.5-4.1l-28.5-138.2c-0.6-3,2-5.8,5.4-5.8l320.9-1.9
	c3.5,0,6.1,2.8,5.5,5.9L529,668.1C528.5,670.4,526.3,672.1,523.6,672.1z"/>
<path class="st3" d="M525.7,692.9L256.6,695c-28,0-27.1-9.9-29.7-23.7l-24.8-130.2c-8.2-26.2-0.5-36.2,29.2-34.1l320-2.1
	c37.9,0,35,10,29.6,34.3l-26,130.1C552.2,683,551.5,695,525.7,692.9z"/>
<g>
	<path class="st4" d="M434.9,723.9c3.5-3.4,7.8-5.1,12.9-5.1c5.1,0,9.4,1.7,12.9,5.1c3.5,3.4,5.3,7.6,5.3,12.5c0,4.1-1.4,7.8-4.1,11
		c-2.7,3.2-6.2,5.3-10.4,6.1v2.4h16.8v2.6h-19.6v-7.3l1.2-0.1c3.8-0.5,7-2.1,9.5-5c2.5-2.8,3.8-6.1,3.8-9.8c0-4.2-1.5-7.7-4.5-10.6
		c-3-2.9-6.7-4.3-11-4.3c-4.3,0-8,1.5-11,4.4c-3,2.9-4.5,6.4-4.5,10.6c0,3.7,1.3,7,3.8,9.8c2.5,2.8,5.7,4.5,9.5,5l1.2,0.1v7.3h-19.6
		v-2.6h16.8v-2.4c-4.2-0.9-7.7-2.9-10.4-6.1c-2.7-3.2-4.1-6.9-4.1-11C429.6,731.5,431.4,727.3,434.9,723.9z"/>
	<path class="st4" d="M486.6,719c2.6,0,4.8,0.7,6.9,2.1c2.7,1.9,4,4.7,4,8.4c0,3.7-1.3,6.5-4,8.4c-2,1.4-4.3,2.1-6.9,2.1h-7.2
		c-0.7,0-1.1,0.3-1.1,1v14.8h21.6v2.6h-24.3v-17.4c0-1.1,0.4-1.9,1.1-2.6s1.6-1,2.7-1h7.2c1.4,0,2.8-0.4,4.2-1.1
		c2.6-1.3,3.9-3.6,3.9-6.9s-1.3-5.5-3.9-6.9c-1.4-0.7-2.8-1-4.2-1h-13v33.3c0,1.1-0.4,1.9-1,2.6c-0.7,0.7-1.6,1-2.7,1h-1.4v-2.6h1.3
		c0.7,0,1.1-0.4,1.1-1V719H486.6z"/>
	<path class="st4" d="M527.5,719c1.1,0,2,0.3,2.7,1c0.7,0.7,1.1,1.5,1.1,2.6c0,1.1-0.4,1.9-1.1,2.6c-0.7,0.7-1.6,1-2.7,1h-14.3
		c-1,0-1.9,0.3-2.5,0.9c-0.6,0.6-0.9,1.4-0.9,2.4s0.3,1.8,0.9,2.4c0.6,0.6,1.5,0.9,2.5,0.9h9.6c1.1,0,2,0.3,2.7,1
		c0.7,0.7,1,1.5,1,2.6c0,1.1-0.3,2-1,2.6c-0.7,0.7-1.6,1-2.7,1h-9.6c-1,0-1.9,0.3-2.5,0.9c-0.6,0.6-0.9,1.4-0.9,2.4
		c0,2.2,1.1,3.3,3.4,3.3h14.3c1.1,0,2,0.3,2.7,1s1.1,1.6,1.1,2.6c0,1-0.4,1.9-1.1,2.6c-0.7,0.7-1.6,1-2.7,1h-16.7
		c-0.7,0-1.1,0.3-1.1,1c0,0.7,0.4,1,1.1,1h22.8v2.6h-22.8c-1.1,0-2-0.3-2.7-1s-1.1-1.5-1.1-2.6c0-1.1,0.4-1.9,1.1-2.6s1.6-1,2.7-1
		h16.7c0.7,0,1.1-0.3,1.1-1c0-0.7-0.4-1-1.1-1h-14.3c-1.8,0-3.2-0.6-4.4-1.7c-1.2-1.1-1.7-2.6-1.7-4.3c0-1.7,0.6-3.1,1.7-4.3
		c1.2-1.1,2.6-1.7,4.4-1.7h9.6c0.7,0,1-0.3,1-1c0-0.6-0.3-1-1-1h-9.6c-1.8,0-3.2-0.6-4.4-1.7c-1.2-1.1-1.7-2.5-1.7-4.2
		s0.6-3.1,1.7-4.2c1.2-1.1,2.6-1.7,4.4-1.7h14.3c0.7,0,1.1-0.3,1.1-1c0-0.7-0.4-1-1.1-1H505v33.3c0,1.1-0.4,1.9-1,2.6
		c-0.7,0.7-1.6,1-2.7,1h-1.4v-2.6h1.3c0.7,0,1.1-0.4,1.1-1V719H527.5z"/>
	<path class="st4" d="M556.2,720c0.7-0.7,1.6-1,2.7-1c1.1,0,2,0.3,2.7,1c0.7,0.7,1,1.5,1,2.6v32.2c0,0.7,0.4,1,1.1,1h1.3l0.1,2.7
		l-1.4-0.1c-2.5-0.3-3.7-1.5-3.7-3.6v-32.1c0-0.7-0.3-1-1-1c-0.7,0-1,0.3-1,1v35.8h-2.1l-17-32.6v29c0,1.1-0.3,1.9-1,2.6
		c-0.7,0.7-1.6,1-2.7,1h-1.4v-2.6h1.3c0.7,0,1.1-0.3,1.1-1V719h2.1l17,32.7v-29.1C555.1,721.6,555.5,720.7,556.2,720z"/>
</g>
<g>
	<path d="M311.7,584.3v-36.1h15.7l5.2,18.8l5.2-18.8h15.5v36.1h-11.7l0.8-21.8l-6.7,21.7h-6.5l-6.6-21.7l0.6,21.8H311.7z"/>
	<path d="M374.6,547.2c3.2,0,6,0.4,8.6,1.2c1.1,0.3,2.1,0.9,3.1,1.6c0.9,0.7,1.8,1.7,2.7,2.9s1.5,2.7,1.9,4.4
		c0.6,2.3,0.9,4.9,0.9,7.8c0,3.4-0.4,6.5-1.2,9.4c-0.6,2.4-1.6,4.4-3,6c-1.4,1.6-3,2.8-4.8,3.4c-2.4,0.9-4.9,1.3-7.6,1.3
		c-2.8,0-5.1-0.3-7.1-0.8c-2-0.6-3.6-1.3-4.8-2.3s-2.3-2.3-3.2-4.1c-0.7-1.3-1.2-2.8-1.7-4.7c-0.6-2.6-0.9-5.2-0.9-8
		c0-3.2,0.3-6.1,1-8.5c0.5-1.9,1.5-3.6,2.8-5.1c1.3-1.5,2.7-2.5,4.3-3.2C367.7,547.6,370.7,547.2,374.6,547.2z M374.7,574.6
		c1.3,0,2.3-0.3,3-0.8c0.7-0.6,1.2-1.4,1.6-2.4c0.3-1.1,0.5-2.8,0.5-5.3c0-1-0.1-1.9-0.2-2.7c-0.2-0.8-0.4-1.5-0.8-2
		c-0.4-0.5-0.9-0.9-1.6-1.2c-0.7-0.3-1.5-0.5-2.5-0.5c-1.9,0-3.2,0.6-4,1.7s-1.1,3-1.1,5.5c0,1.2,0.1,2.3,0.3,3.3
		c0.2,1.1,0.5,1.9,0.9,2.5c0.4,0.6,0.9,1.1,1.6,1.5C372.9,574.4,373.7,574.6,374.7,574.6z"/>
	<path d="M393.5,548.2h13l4.1,23.2l4.3-23.2h13l-8.4,36.1h-17.6L393.5,548.2z"/>
	<path d="M432.5,584.3v-36.1h12.6v36.1H432.5z"/>
	<path d="M452.3,548.2h27.2v10.7H465v3.8h14.6v8.4H465v4h14.6v9.3h-27.2V548.2z"/>
</g>
<g>
	<path d="M310.4,595.9h39.3v15.9h-11.1v31.4h-16.8v-31.4h-11.3V595.9z"/>
	<path d="M355.6,643.2v-47.3h16.5v47.3H355.6z"/>
	<path d="M381.7,643.2v-47.3h20.6l6.8,24.7l6.9-24.7h20.3v47.3H421l1.1-28.6l-8.9,28.4h-8.6l-8.6-28.4l0.8,28.6H381.7z"/>
	<path d="M443.9,595.9h35.7v14h-19.1v5h19.1v11h-19.1v5.2h19.1v12.2h-35.7V595.9z"/>
</g>
<polygon points="512,587.5 519.4,583.6 518,591.9 524,597.8 515.7,599 512,606.5 508.3,599 499.9,597.8 506,591.9 504.5,583.6 "/>
<polygon points="271,587.5 278.4,583.6 277,591.9 283,597.8 274.7,599 271,606.5 267.3,599 258.9,597.8 265,591.9 263.5,583.6 "/>
</svg>
