<?xml version="1.0" encoding="utf-8"?>
<!-- Generator: Adobe Illustrator 23.0.0, SVG Export Plug-In . SVG Version: 6.00 Build 0)  -->
<svg version="1.1" id="Layer_1" xmlns="http://www.w3.org/2000/svg" xmlns:xlink="http://www.w3.org/1999/xlink" x="0px" y="0px" viewBox="0 0 1024 1024" style="enable-background:new 0 0 1024 1024;" xml:space="preserve">
    <style type="text/css">
        .st0 {
            fill: #FFFFFF;
            stroke: #000000;
            stroke-width: 17;
            stroke-miterlimit: 10;
        }

        .st1 {
            fill: #FFFFFF;
        }

        .st5 {
            animation: animation1 4s infinite;
    
        }

        .st2 {
            fill: #F7931E;
            animation: animate 2s infinite;
            animation-delay: 0.6s;
        }

        .s1 {
            fill: #F7931E;
            animation: animate 2s infinite;
            animation-delay: 0.2s;
            display: block;
            transform-origin: 50%;
        }

        .s2 {
            fill: #F7931E;
            animation: animate 2s infinite;
            animation-delay: 0.5s;
            display: block;
            transform-origin: 50%;
        }

        .s3 {
            fill: #F7931E;
            animation: animate 2s infinite;
            animation-delay: 0.7s;
            display: block;
            transform-origin: 50%;
        }

        .s4 {
            fill: #F7931E;
            animation: animate 2s infinite;
            animation-delay: 0.8s;
            display: block;
            transform-origin: 50%;
        }

        .s5 {
            fill: #F7931E;
            animation: animate 2s infinite;
            animation-delay: 1s;
            display: block;
            transform-origin: 50%;
        }

        .S1 {
            animation: zigzag 4s infinite;
            animation-delay: 0.3s;
        }

        .S2 {
            animation: zigzag 4s infinite;
            animation-delay: 0.5s;
        }

        .S3 {
            animation: zigzag 4s infinite;
            animation-delay: 0.7s;
        }

        .S4 {
            animation: zigzag 4s infinite;
            animation-delay: 0.5s;
        }

        .S5 {
            animation: zigzag 4s infinite;
            animation-delay: 1s;
        }

        @keyframes animation1 {
            0% {
                fill:white;
            }


            100% {
                fill: #F7931E;
            }
        }

        @keyframes zigzag {
            0% {
                transform: translateX(-10px)
            }

            20% {
                transform: translateX(10px)
            }

            40% {
                transform: translateX(-15px)
            }

            60% {
                transform: translateX(15px)
            }

            80% {
                transform: translateX(-15px)
            }

            100% {
                transform: translateX(15px)
            }
        }


        @keyframes animate {
            0% {
                opacity: 0;

                transform: translateY(20px);
            }

            40% {
                tramsform:
                    translateY(-20px);
                opacity: 0.4;
            }


            80% {
                tramsform: translateY(30px);
                opacity: 0.8;
            }

            100% {
                opacity: 0;
                transform: translateY(4-0px);
            }
        }

    </style>
    <path d="M476,649H240c-49.5,0-90-40.5-90-90v-91c0-49.5,40.5-90,90-90h236c49.5,0,90,40.5,90,90v91C566,608.5,525.5,649,476,649z" />
    <ellipse class="st0" cx="247.8" cy="387.2" rx="113.7" ry="116.8">

        <animate attributeName="cx" attributeType="XML" from="227.8" to="247.8" begin="0.5" dur="2s" repeatCount="indefinite" />
    </ellipse>
    <ellipse class="st0" cx="474.8" cy="384.2" rx="113.7" ry="116.8">
        <animate attributeName="cx" attributeType="XML" from="494.8" to="474.8" begin="0.5" dur="2s" repeatCount="indefinite" />
    </ellipse>
    <ellipse cx="243" cy="384" rx="46" ry="45">
        <animate attributeName="cx" attributeType="XML" from="223" to="243" begin="0.5" dur="2s" repeatCount="indefinite" />
    </ellipse>
    <ellipse cx="477" cy="382" rx="46" ry="45">
        <animate attributeName="cx" attributeType="XML" from="497" to="477" begin="0.5" dur="2s" repeatCount="indefinite" />
    </ellipse>
    <ellipse class="st1" cx="219.5" cy="358.9" rx="15.5" ry="15.9">
        <animate attributeName="cx" attributeType="XML" from="239.5" to="270" begin="0.5" dur="2s" repeatCount="indefinite" />
    </ellipse>
    <ellipse class="st1" cx="451.5" cy="358.9" rx="15.5" ry="15.9">
        <animate attributeName="cx" attributeType="XML" from="491.5" to="451.5" begin="0.5" dur="2s" repeatCount="indefinite" />
    </ellipse>
    <path class="st5" d="M325.5,468.9c4.1-8,35.5-8.9,35.5-8.9s32.3,0.1,36.6,8c3.9,7.1-10.6,30-10.6,30s-16.9,38.9-25,39s-24-32-24-32
	S321.7,476.1,325.5,468.9z" />
    <path d="M650.7,578.2C636.6,586.1,592,552,592,552l-52.2-40.1L597,473c0,0,41.8-32.2,55.7-23.9c13.9,8.3-1,64.6-1,64.6
	S664.8,570.4,650.7,578.2z" />
    <polygon class="st2" points="702,438 711.9,460.1 735.2,464.3 717.7,480.7 721,504.8 700.4,492.9 679,503.5 683.8,479.7 
	667.3,462.2 690.9,459.4 " />
    <g class="S1">
        <polygon class="s1" points="817.4,464.1 836.9,486.8 865.1,483.3 851.4,509.2 864.2,536.6 836.2,529.9 816,550.4 812.4,520.4 
	787.1,505.6 812.8,493.7 " />
    </g>
    <g class="S2">
        <polygon class="s2" points="762.5,426.9 774.4,432.5 786.3,425.8 784.1,439 793.8,447.8 780.5,450.3 774.6,462.5 768.6,450.9 
	755.3,449.6 764.9,439.9 " />
    </g>
    <g class="S3">
        <polygon class="s3" points="771.7,504.3 773.3,525.5 792.8,537.6 771.8,544 766.9,564.3 752.3,547 729.7,547.3 741.7,530.3 
	732.7,510.3 754.7,517 " />
    </g>
    <g class="S4">
        <polygon class="s4" points="687.8,540 689.9,556 703.9,563 689.8,570.4 687.4,586.6 676.6,575.1 661.1,578.2 668.5,563.6 
	661.4,549.4 676.8,551.8 " />
    </g>
    <g class="S5">
        <polygon class="s5" points="793.6,562 802.9,567.4 811.1,563.2 810.6,573.4 818.5,581.1 808.9,581.9 805.7,591 800.2,581.4 
	790.3,579.2 796.5,572.4 " />
    </g>
</svg>
