<svg xmlns="http://www.w3.org/2000/svg" viewBox="0 0 64.1 151.2">
    <defs>
        <style>
            g {
                transform: scale(0.5) translateX(20%) translateY(50%);
            }

            .a {
                fill: #F6B8AF;
                opacity: 0;
                animation-duration: 5s;
                animation-name: colorchanginga;
                animation-iteration-count: infinite;
                animation-timing-function: linear;
            }

            @keyframes colorchanginga {
                7% {
                    opacity: 0;
                }

                24% {
                    opacity: 1;
                }

                37% {
                    opacity: 1;
                }

                70% {
                    opacity: 0;
                }

                100% {
                    opacity: 0;
                }
            }

            @keyframes colorchangingb {
                6% {
                    opacity: 0;
                }

                24% {
                    opacity: 1;
                }

                41% {
                    opacity: 1;
                }

                70% {
                    opacity: 0;
                }

                100% {
                    opacity: 0;
                }
            }

            @keyframes colorchangingc {
                5% {
                    opacity: 0;
                }

                24% {
                    opacity: 1;
                }

                45% {
                    opacity: 1;
                }

                70% {
                    opacity: 0;
                }

                100% {
                    opacity: 0;
                }
            }

            @keyframes colorchangingd {
                4% {
                    opacity: 0;
                }

                24% {
                    opacity: 1;
                }

                49% {
                    opacity: 1;
                }

                70% {
                    opacity: 0;
                }

                100% {
                    opacity: 0;
                }
            }

            @keyframes colorchanginge {
                3% {
                    opacity: 0;
                }

                24% {
                    opacity: 1;
                }

                53% {
                    opacity: 1;
                }

                70% {
                    opacity: 0;
                }

                100% {
                    opacity: 0;
                }
            }

            @keyframes colorchangingf {
                2% {
                    opacity: 0;
                }

                24% {
                    opacity: 1;
                }

                57% {
                    opacity: 1;
                }

                70% {
                    opacity: 0;
                }

                100% {
                    opacity: 0;
                }
            }

            @keyframes colorchangingg {
                1% {
                    opacity: 0;
                }

                24% {
                    opacity: 1;
                }

                61% {
                    opacity: 1;
                }

                70% {
                    opacity: 0;
                }

                100% {
                    opacity: 0;
                }
            }

            @keyframes colorchangingh {
                0% {
                    opacity: 0;
                }

                18% {
                    opacity: 1;
                }

                65% {
                    opacity: 1;
                }

                75% {
                    opacity: 0;
                }

                100% {
                    opacity: 0;
                }
            }

            .b {
                fill: #F3A49B;
                opacity: 0;
                animation-duration: 5s;

                animation-name: colorchangingb;
                animation-iteration-count: infinite;
                animation-timing-function: linear;
            }


            .c {
                fill: #F09289;
                opacity: 0;
                animation-duration: 5s;

                animation-name: colorchangingc;
                animation-iteration-count: infinite;
                animation-timing-function: linear;
            }

            .d {
                fill: #EE807A;
                opacity: 0;
                animation-duration: 5s;

                animation-name: colorchangingd;
                animation-iteration-count: infinite;
                animation-timing-function: linear;
            }

            .e {
                fill: #EC6867;
                opacity: 0;
                animation-duration: 5s;

                animation-name: colorchanginge;
                animation-iteration-count: infinite;
                animation-timing-function: linear;
            }

            .f {
                fill: #E94F57;
                opacity: 0;
                animation-duration: 5s;

                animation-name: colorchangingf;
                animation-iteration-count: infinite;
                animation-timing-function: linear;
            }

            .g {
                fill: #E73349;
                opacity: 0;
                animation-duration: 5s;

                animation-name: colorchangingg;
                animation-iteration-count: infinite;
                animation-timing-function: linear;
            }

            .h {
                fill: #E6003D;
                opacity: 0;
                animation-duration: 5s;
                animation-name: colorchangingh;
                animation-iteration-count: infinite;
                animation-timing-function: linear;
            }

        </style>
    </defs>
    <title>SVG icon final</title>
    <g>
        <path class="a" d="M117.8,134.4V22.8h0a6.8,6.8,0,0,0-13.6,0h0v94.3c-7.7-3.2-17.6-3.3-27.3.4-17,6.5-26.8,22.2-21.8,35.1s22.7,18.1,39.7,11.7C109.5,158.6,118.9,146,117.8,134.4Z" transform="translate(-53.8 -15.9)" />
        <path class="b" d="M117.1,134.8V35.9h0a6.1,6.1,0,0,0-12.1,0h0v83.6c-6.8-2.8-15.6-2.9-24.2.4-15,5.7-23.7,19.7-19.4,31.1s20.2,16.1,35.2,10.3C109.7,156.3,118,145.1,117.1,134.8Z" transform="translate(-53.8 -15.9)" />
        <path class="c" d="M116.4,134.5V48.3h0a5.3,5.3,0,0,0-5.3-5.3,5.2,5.2,0,0,0-5.2,5.3h0v72.8c-6-2.4-13.6-2.5-21.1.4-13.1,5-20.7,17.1-16.9,27.1s17.5,14,30.7,9C110,153.2,117.2,143.5,116.4,134.5Z" transform="translate(-53.8 -15.9)" />
        <path class="d" d="M115.6,134V60.5h0a4.5,4.5,0,0,0-4.5-4.5,4.5,4.5,0,0,0-4.5,4.5h0v62.1c-5-2.1-11.5-2.1-17.9.3C77.5,127.2,71,137.5,74.3,146s14.9,12,26.1,7.7S116.3,141.7,115.6,134Z" transform="translate(-53.8 -15.9)" />
        <path class="e" d="M114.8,133.3V72.5h0a3.7,3.7,0,1,0-7.4,0h0v51.4a20.7,20.7,0,0,0-14.9.2c-9.3,3.6-14.6,12.1-11.9,19.2s12.4,9.9,21.6,6.3S115.4,139.7,114.8,133.3Z" transform="translate(-53.8 -15.9)" />
        <path class="f" d="M114.1,133V84.8h0a3,3,0,0,0-5.9,0h0v40.7a15.8,15.8,0,0,0-11.7.2c-7.4,2.8-11.6,9.6-9.5,15.2s9.8,7.8,17.2,5S114.6,138,114.1,133Z" transform="translate(-53.8 -15.9)" />
        <path class="g" d="M113.4,132.4V96.9h0a2.2,2.2,0,0,0-2.2-2.2,2.1,2.1,0,0,0-2.1,2.2h0v30a12.4,12.4,0,0,0-8.7.1c-5.4,2.1-8.5,7.1-7,11.2s7.2,5.8,12.7,3.7S113.7,136.1,113.4,132.4Z" transform="translate(-53.8 -15.9)" />
        <path class="h" d="M112.4,132.4V109.5h0a1.4,1.4,0,0,0-1.4-1.4,1.4,1.4,0,0,0-1.4,1.4h0v19.3a8,8,0,0,0-5.5.1c-3.5,1.3-5.5,4.6-4.5,7.2s4.6,3.7,8.1,2.4S112.6,134.7,112.4,132.4Z" transform="translate(-53.8 -15.9)" />
    </g>
</svg>
